<svg id="Capa_1" enable-background="new 0 0 512 512" height="512" viewBox="0 0 512 512" width="512"
     xmlns="http://www.w3.org/2000/svg">
    <g>
        <g>
            <g clip-rule="evenodd" fill-rule="evenodd">
                <path d="m233.185 113.592-17.437-41.485c-3.197-7.606.411-16.443 8.016-19.64s16.444.41 19.64 8.016l17.437 41.485c3.197 7.605-.411 16.443-8.016 19.64-7.605 3.196-16.443-.411-19.64-8.016zm271.315 142.408c0-137.242-111.258-248.5-248.5-248.5s-248.5 111.258-248.5 248.5c0 39.292 9.119 76.454 25.357 109.485 23.059 8.859 48.487-8.268 48.487-33.387v-58c0-10.305 8.432-18.737 18.737-18.737s18.737 8.432 18.737 18.737v20.804c0 14.92 12.207 27.128 27.127 27.128 11.356 0 21.199-7.109 25.255-17.083-8.199-14.355-12.962-31.05-13.15-48.947-.566-54.166 43.78-97.949 97.949-97.949s97.949 43.78 97.949 97.949v76.091c0 42.369 64.483 42.369 64.483 0v-58c0-10.305 8.432-18.737 18.737-18.737s18.737 8.432 18.737 18.737v13.304c0 22.139 25.079 34.696 42.82 22.107 3.782-17.232 5.775-35.135 5.775-53.502zm-129.303-52.199c-6.993-4.377-9.135-13.679-4.759-20.672l18.371-29.357c4.376-6.993 13.679-9.135 20.672-4.758 6.994 4.376 9.135 13.679 4.759 20.672l-18.371 29.357c-4.376 6.994-13.679 9.134-20.672 4.758zm59.556.744c-2.668-7.806 1.535-16.377 9.341-19.045 7.806-2.669 16.378 1.535 19.046 9.341l4.386 12.83c2.668 7.806-1.535 16.377-9.341 19.045-7.806 2.669-16.377-1.535-19.046-9.341zm-115.136-66.311c-8.149 1.286-15.868-4.33-17.154-12.479s4.329-15.869 12.478-17.154l34.208-5.397c8.148-1.285 15.868 4.33 17.154 12.479s-4.33 15.869-12.479 17.154zm-242.068 69.532-16.692-30.343c-3.976-7.228-1.315-16.396 5.913-20.372 7.228-3.977 16.396-1.315 20.372 5.912l16.692 30.343c3.977 7.228 1.315 16.396-5.913 20.372-7.229 3.977-16.396 1.316-20.372-5.912zm73.306-79.725c-3.946 7.245-13.103 9.943-20.347 5.997-7.245-3.946-9.944-13.103-5.997-20.347l21.525-39.518c3.946-7.245 13.103-9.943 20.348-5.997s9.944 13.103 5.997 20.347z"
                      fill="#ff80ab"/>
                <path d="m103.834 193.306-16.692-30.343c-3.976-7.228-13.144-9.889-20.372-5.912-7.228 3.976-9.889 13.144-5.913 20.372l16.692 30.343c3.976 7.228 13.144 9.889 20.372 5.913 7.228-3.977 9.89-13.144 5.913-20.373z"
                      fill="#faee91"/>
                <path d="m172.38 88.523c3.946-7.244 1.247-16.401-5.997-20.347-7.245-3.946-16.401-1.248-20.348 5.997l-21.525 39.518c-3.946 7.245-1.248 16.401 5.997 20.347s16.401 1.248 20.347-5.997z"
                      fill="#faee91"/>
                <path d="m260.842 101.967-17.437-41.485c-3.196-7.605-12.035-11.212-19.64-8.016-7.605 3.197-11.213 12.034-8.016 19.64l17.437 41.485c3.197 7.605 12.035 11.212 19.64 8.015 7.605-3.195 11.212-12.033 8.016-19.639z"
                      fill="#faee91"/>
                <path d="m366.304 115.682c-1.286-8.149-9.005-13.764-17.154-12.479l-34.208 5.397c-8.149 1.285-13.764 9.005-12.478 17.154s9.005 13.765 17.154 12.479l34.208-5.397c8.148-1.285 13.764-9.005 12.478-17.154z"
                      fill="#faee91"/>
                <path d="m414.24 169.686c4.376-6.993 2.235-16.296-4.759-20.672-6.993-4.377-16.296-2.235-20.672 4.758l-18.371 29.357c-4.377 6.993-2.235 16.296 4.759 20.672s16.296 2.235 20.673-4.758z"
                      fill="#faee91"/>
                <path d="m467.525 207.671-4.386-12.83c-2.668-7.806-11.24-12.009-19.046-9.341s-12.01 11.239-9.341 19.045l4.386 12.831c2.669 7.806 11.239 12.009 19.046 9.341 7.806-2.67 12.01-11.24 9.341-19.046z"
                      fill="#faee91"/>
                <path d="m353.949 332.091v-76.091c0 54.169-43.783 97.432-97.949 97.949-36.23.346-67.853-19.332-84.799-49.001-4.056 9.974-13.899 17.083-25.255 17.083-14.92 0-27.127-12.208-27.127-27.128v-20.804c0-10.305-8.432-18.737-18.737-18.737s-18.737 8.431-18.737 18.737v58c0 25.118-25.429 42.246-48.487 33.387 40.477 82.342 125.191 139.014 223.142 139.014 118.875 0 218.255-83.47 242.726-194.998-17.741 12.589-42.82.033-42.82-22.107v-13.304c0-10.305-8.432-18.737-18.737-18.737s-18.737 8.431-18.737 18.737v58c0 42.369-64.483 42.369-64.483 0z"
                      fill="#faee91"/>
            </g>
            <g>
                <path d="m140.392 221.329-14.383-4.258c1.5-5.067 3.327-10.104 5.43-14.971l13.77 5.949c-1.866 4.318-3.486 8.787-4.817 13.28zm11.173-25.868-12.965-7.545c12.709-21.837 31.275-39.665 53.693-51.556l7.029 13.25c-19.943 10.58-36.457 26.435-47.757 45.851z"
                      fill="#fff"/>
            </g>
            <g>
                <path d="m165.937 463.343c-4.717-2.052-9.434-4.3-14.02-6.684l6.918-13.309c4.279 2.224 8.682 4.322 13.084 6.236zm-27.533-14.307c-21.579-13.171-40.693-29.754-56.81-49.288l11.57-9.547c15.052 18.245 32.902 33.732 53.054 46.032zm296.525-304.926c-20.269-32.347-48.914-58.632-82.839-76.015l6.84-13.35c36.33 18.615 67.006 46.763 88.71 81.399zm-95.951-82.17c-4.44-1.902-8.992-3.668-13.528-5.249l4.936-14.164c4.862 1.694 9.74 3.586 14.499 5.624z"
                      fill="#fff"/>
            </g>
            <path clip-rule="evenodd"
                  d="m233.185 113.592-17.437-41.485c-3.197-7.606.411-16.443 8.016-19.64s16.444.41 19.64 8.016l17.437 41.485c3.197 7.605-.411 16.443-8.016 19.64-7.605 3.196-16.443-.411-19.64-8.016zm34.065-105.827c-141.488-6.311-259.75 106.445-259.75 248.235 0 37.996 8.658 75.53 25.357 109.485 23.059 8.859 48.487-8.268 48.487-33.387v-58c0-10.305 8.432-18.737 18.737-18.737s18.737 8.432 18.737 18.737v20.804c0 14.92 12.207 27.128 27.127 27.128 11.356 0 21.199-7.109 25.255-17.083-8.199-14.355-12.962-31.05-13.15-48.947-.566-54.166 43.78-97.949 97.949-97.949s97.949 43.78 97.949 97.949v76.091c0 42.369 64.483 42.369 64.483 0v-58c0-10.305 8.432-18.737 18.737-18.737s18.737 8.432 18.737 18.737v13.304c0 22.139 25.079 34.696 42.82 22.107.937-4.271 1.764-8.583 2.479-12.934-12.868 5.73-30.299 4.584-30.299-9.173v-13.304c0-15.108-10.013-27.947-23.744-32.222 5.117 1.087 10.58.851 15.874-.959 15.64-5.346 24.029-22.451 18.683-38.09l-4.386-12.83c-5.346-15.64-22.452-24.029-38.091-18.683s-24.028 22.451-18.683 38.09l4.385 12.831c3.197 9.354 10.601 16.114 19.381 18.893-2.308-.502-4.702-.766-7.157-.766-18.585 0-33.737 15.152-33.737 33.737v58c0 10.585-6.95 16.777-17.241 16.777-3.339 0-6.783-.77-9.705-2.413-5.472-3.078-7.537-8.258-7.537-14.364v-76.092c0-17.404-3.923-33.88-10.933-48.594 2.304 3.581 5.401 6.718 9.224 9.11 13.953 8.731 32.613 4.437 41.345-9.517l18.371-29.357c8.731-13.953 4.436-32.613-9.517-41.344-13.953-8.732-32.613-4.437-41.345 9.516l-18.371 29.357c-5.204 8.317-5.781 18.306-2.442 26.868-19.126-35.161-56.384-58.988-99.28-58.988-62.367 0-113.602 50.466-112.948 113.105.174 16.619 3.821 32.926 10.812 47.904-2.172 1.86-4.965 2.97-7.918 2.97-6.641 0-12.128-5.487-12.128-12.128v-20.804c0-18.585-15.153-33.737-33.737-33.737-18.585 0-33.737 15.152-33.737 33.737v58c0 10.386-7.631 18.556-16.925 20.371-12.504-29.661-19.418-62.258-19.418-96.469 0-29.054 4.99-56.94 14.153-82.854.38 3.928 1.544 7.84 3.561 11.507l16.692 30.343c7.963 14.476 26.269 19.788 40.744 11.825 14.476-7.963 19.79-26.269 11.826-40.744l-16.692-30.343c-7.963-14.475-26.269-19.788-40.744-11.825-1.539.847-2.973 1.811-4.3 2.875 38.873-79.307 118.753-134.862 212.01-139.019zm-47.893 111.639c6.378 15.174 24.106 22.409 39.28 16.031s22.41-24.106 16.032-39.28l-17.436-41.485c-6.378-15.174-24.106-22.41-39.28-16.032-15.173 6.378-22.41 24.106-16.032 39.28zm102.598 33.646c-16.326 2.576-31.732-8.631-34.308-24.957-2.576-16.327 8.63-31.733 24.957-34.309l34.208-5.397c16.326-2.576 31.732 8.632 34.308 24.958s-8.631 31.733-24.958 34.308zm-157.928-17.834c-7.905 14.513-26.181 19.9-40.695 11.995-14.513-7.906-19.9-26.182-11.995-40.695l21.525-39.518c7.906-14.513 26.182-19.9 40.695-11.994 14.513 7.905 19.9 26.181 11.995 40.694zm211.17 68.585c-6.993-4.377-9.135-13.679-4.759-20.672l18.371-29.357c4.376-6.993 13.679-9.135 20.672-4.758 6.994 4.376 9.135 13.679 4.759 20.672l-18.371 29.357c-4.376 6.994-13.679 9.134-20.672 4.758zm59.556.744c-2.668-7.806 1.535-16.377 9.341-19.045 7.806-2.669 16.378 1.535 19.046 9.341l4.386 12.83c2.668 7.806-1.535 16.377-9.341 19.045-7.806 2.669-16.377-1.535-19.046-9.341zm-115.136-66.311c-8.149 1.286-15.868-4.33-17.154-12.479s4.329-15.869 12.478-17.154l34.208-5.397c8.148-1.285 15.868 4.33 17.154 12.479s-4.33 15.869-12.479 17.154zm-242.068 69.532-16.692-30.343c-3.976-7.228-1.315-16.396 5.913-20.372 7.228-3.977 16.396-1.315 20.372 5.912l16.692 30.343c3.977 7.228 1.315 16.396-5.913 20.372-7.229 3.977-16.396 1.316-20.372-5.912zm73.306-79.725c-3.946 7.245-13.103 9.943-20.347 5.997-7.245-3.946-9.944-13.103-5.997-20.347l21.525-39.518c3.946-7.245 13.103-9.943 20.348-5.997s9.944 13.103 5.997 20.347z"
                  fill="#ff4081" fill-rule="evenodd"/>
            <path clip-rule="evenodd"
                  d="m353.949 332.091v-76.091c0 54.169-43.783 97.432-97.949 97.949-36.23.346-67.853-19.332-84.799-49.001-4.056 9.974-13.899 17.083-25.255 17.083-14.92 0-27.127-12.208-27.127-27.128v-20.804c0-10.305-8.432-18.737-18.737-18.737s-18.737 8.431-18.737 18.737v58c0 25.118-25.429 42.246-48.487 33.387 43.461 88.407 135.665 143.195 234.477 138.758-87.499-3.87-163.235-52.984-204.385-124.522 18.978-7.027 33.395-25.172 33.395-47.623v-58c0-2.026 1.711-3.737 3.737-3.737s3.737 1.711 3.737 3.737v20.804c0 23.199 18.928 42.128 42.127 42.128 8.819 0 17.19-2.778 24.125-7.624 21.169 25.053 52.387 39.863 86.072 39.542 32.715-.312 62.195-14.222 82.808-36.422.217 27.045 20.62 46.341 47.24 46.341 8.499 0 16.991-2.092 24.411-6.265 14.982-8.426 22.83-23.504 22.83-40.512v-58c0-2.026 1.712-3.737 3.737-3.737 2.026 0 3.737 1.711 3.737 3.737v13.304c0 22.713 17.216 39.16 36.919 41.764 3.853-.001 9.379-.12 16.145-1.409 1.805-5.993 3.402-12.075 4.756-18.248-17.741 12.589-42.82.033-42.82-22.107v-13.304c0-10.305-8.432-18.737-18.737-18.737s-18.737 8.431-18.737 18.737v58c0 42.369-64.483 42.369-64.483 0z"
                  fill="#fbe863" fill-rule="evenodd"/>
        </g>
        <g>
            <path d="m256 497c-89.514 0-167.781-49.059-209.34-121.699 8.233-.225 16.38-2.809 23.409-7.638 11.756-8.077 18.774-21.372 18.774-35.564v-21.5h-15v21.5c0 9.388-4.472 17.845-12.269 23.201-6.886 4.732-15.387 6.176-23.249 4.075-14.945-31.345-23.325-66.398-23.325-103.375 0-61.765 23.347-120.508 65.738-165.406l-10.906-10.297c-45.032 47.693-69.832 110.093-69.832 175.703 0 68.38 26.629 132.667 74.981 181.019s112.639 74.981 181.019 74.981c56.202 0 109.546-17.878 154.267-51.7l-9.049-11.963c-42.093 31.836-92.309 48.663-145.218 48.663z"/>
            <path d="m437.019 74.981c-48.352-48.352-112.639-74.981-181.019-74.981-65.363 0-127.595 24.644-175.229 69.391l10.27 10.934c44.843-42.126 103.427-65.325 164.959-65.325 132.888 0 241 108.112 241 241 0 16.566-1.719 32.919-5.012 48.849-5.612 2.912-12.161 2.916-18.002-.101-6.625-3.423-10.58-9.909-10.58-17.353v-13.304c0-14.467-11.77-26.236-26.236-26.236s-26.237 11.77-26.237 26.236v21.5h15v-21.5c0-6.195 5.041-11.236 11.237-11.236 6.195 0 11.236 5.041 11.236 11.236v13.304c0 13.163 6.989 24.632 18.695 30.679 5.073 2.621 10.563 3.916 16.02 3.916 1.597 0 3.19-.126 4.77-.347-12.811 45.276-38.75 86.279-75.339 117.573l9.75 11.398c57.004-48.756 89.698-119.689 89.698-194.614 0-68.38-26.629-132.667-74.981-181.019z"/>
            <path d="m262.931 165.812c46.833 3.529 83.519 43.145 83.519 90.188 0 47.411-35.932 86.157-83.58 90.128l1.246 14.947c26.494-2.207 51.027-14.058 69.079-33.367 5.065-5.417 9.495-11.298 13.255-17.539v21.922c0 12.041 4.368 22.233 12.633 29.474 7.216 6.321 16.843 9.803 27.108 9.803 19.749 0 39.741-13.491 39.741-39.276v-21.5h-15v21.5c0 16.771-12.426 24.277-24.741 24.277s-24.741-7.507-24.741-24.277v-76.092c0-26.796-10.03-52.324-28.243-71.881-18.118-19.456-42.676-31.27-69.148-33.265z"/>
            <path d="m73.844 274.099v21.5h15v-21.5c0-6.196 5.041-11.237 11.237-11.237s11.237 5.041 11.237 11.237v20.804c0 19.094 15.533 34.628 34.627 34.628 9.594 0 18.702-4.125 25.181-10.923 2.468 3.381 5.142 6.627 8.018 9.717 18.094 19.438 42.547 31.12 68.855 32.893l1.008-14.967c-47.073-3.171-82.952-42.004-83.458-90.328-.49-46.968 36.196-86.549 83.519-90.11l-1.125-14.957c-55.185 4.152-97.965 50.372-97.392 105.224.181 17.33 4.41 34.074 12.185 48.998-3.576 5.758-9.966 9.454-16.792 9.454-10.822 0-19.627-8.805-19.627-19.628v-20.804c0-14.467-11.771-26.237-26.237-26.237s-26.236 11.769-26.236 26.236z"/>
            <path d="m208.834 75.013 17.438 41.485c3.614 8.599 11.98 13.781 20.771 13.781 2.901-.001 5.851-.565 8.688-1.758 11.438-4.809 16.831-18.023 12.024-29.46l-17.438-41.484c-2.322-5.525-6.671-9.822-12.246-12.098-5.575-2.274-11.688-2.249-17.214.073h.001c-11.436 4.807-16.831 18.023-12.024 29.461zm17.836-15.632c.923-.388 1.895-.581 2.872-.581.965 0 1.935.189 2.862.567 1.865.762 3.316 2.189 4.086 4.021l17.438 41.485c1.603 3.812-.196 8.217-4.008 9.819-3.814 1.602-8.219-.194-9.82-4.008l-17.438-41.484c-1.602-3.811.196-8.217 4.008-9.819z"/>
            <path d="m126.92 140.624c3.334 1.816 6.995 2.739 10.7 2.739 2.143 0 4.302-.309 6.418-.933 5.777-1.703 10.537-5.539 13.402-10.802l21.527-39.519c5.933-10.896 1.896-24.587-8.997-30.521-10.897-5.936-24.588-1.899-30.521 8.995l-21.525 39.519c-2.867 5.263-3.509 11.343-1.806 17.118 1.703 5.778 5.539 10.538 10.802 13.404zm4.176-23.345 21.525-39.519c1.359-2.496 3.939-3.911 6.599-3.911 1.211 0 2.439.294 3.575.912 3.632 1.979 4.978 6.543 3 10.174l-21.527 39.519c-.949 1.744-2.537 3.019-4.47 3.588-1.936.571-3.96.359-5.702-.59-1.745-.951-3.021-2.538-3.59-4.472-.569-1.932-.36-3.957.59-5.701z"/>
            <path d="m93.714 159.349c-2.889-5.251-7.665-9.067-13.447-10.746-5.784-1.68-11.861-1.012-17.111 1.877-5.251 2.889-9.067 7.665-10.746 13.448s-1.012 11.859 1.877 17.111l16.691 30.342c4.093 7.439 11.806 11.651 19.752 11.65 3.663 0 7.377-.896 10.807-2.781 5.251-2.889 9.067-7.665 10.746-13.447 1.679-5.783 1.012-11.86-1.877-17.111zm4.163 43.272c-.562 1.936-1.83 3.528-3.57 4.486-3.622 1.993-8.193.668-10.187-2.957l-16.691-30.342c-1.993-3.623-.667-8.193 2.957-10.187 1.107-.609 2.33-.919 3.571-.919.709 0 1.425.101 2.128.305 1.936.562 3.528 1.83 4.486 3.571l16.691 30.343c.959 1.741 1.176 3.766.615 5.7z"/>
            <path d="m364.712 99.84c-4.869-3.542-10.812-4.977-16.731-4.045l-34.206 5.397c-5.921.934-11.132 4.13-14.675 8.999-3.542 4.87-4.979 10.813-4.044 16.732s4.131 11.132 8.999 14.674c3.899 2.836 8.486 4.322 13.198 4.322 1.173 0 2.354-.092 3.533-.278l34.208-5.396c5.92-.935 11.131-4.131 14.673-9 3.543-4.87 4.979-10.812 4.045-16.731-.934-5.92-4.13-11.132-9-14.674zm-7.175 22.581c-1.186 1.63-2.919 2.698-4.881 3.008l-34.208 5.396c-1.97.312-3.94-.174-5.569-1.357-1.629-1.186-2.697-2.919-3.007-4.882s.173-3.941 1.357-5.57c1.186-1.63 2.919-2.697 4.882-3.007l34.206-5.397c.389-.062.776-.091 1.163-.091 1.568 0 3.101.498 4.408 1.449 1.629 1.186 2.697 2.919 3.007 4.881v.001c.31 1.961-.172 3.94-1.358 5.569z"/>
            <path d="m361.245 196.129c1.351 5.868 4.893 10.851 9.973 14.029 3.609 2.259 7.696 3.421 11.864 3.421 1.7 0 3.415-.193 5.114-.585 5.869-1.351 10.852-4.893 14.03-9.973l18.371-29.356c3.18-5.081 4.187-11.11 2.835-16.979-1.351-5.867-4.893-10.851-9.972-14.029-5.081-3.18-11.108-4.187-16.979-2.836-5.868 1.351-10.851 4.893-14.029 9.973l-18.371 29.356c-3.18 5.08-4.187 11.11-2.836 16.979zm15.551-9.022 18.371-29.356c1.054-1.685 2.716-2.86 4.68-3.313.572-.132 1.149-.197 1.721-.197 1.387 0 2.742.385 3.935 1.131h.001c1.685 1.054 2.86 2.716 3.313 4.68s.121 3.973-.933 5.656l-18.371 29.356c-1.054 1.685-2.716 2.86-4.68 3.313-1.962.453-3.973.12-5.657-.934s-2.86-2.716-3.313-4.68c-.453-1.962-.121-3.971.933-5.656z"/>
            <path d="m443.432 232.707c3.145 1.542 6.522 2.32 9.915 2.32 2.441 0 4.89-.403 7.263-1.215 11.739-4.014 18.025-16.828 14.013-28.567l-4.386-12.83c-1.938-5.671-5.983-10.255-11.391-12.907-5.407-2.649-11.505-3.043-17.179-1.104-5.67 1.938-10.254 5.983-12.905 11.39s-3.044 11.508-1.105 17.178l4.386 12.83c1.937 5.67 5.982 10.253 11.389 12.905zm-1.203-36.309c.888-1.81 2.411-3.159 4.291-3.802h.001c.782-.268 1.591-.4 2.398-.4 1.134 0 2.266.262 3.322.779 1.81.888 3.159 2.411 3.802 4.291l4.386 12.83c1.337 3.913-.758 8.185-4.672 9.522-1.881.643-3.911.508-5.72-.379-1.81-.888-3.159-2.411-3.802-4.291l-4.386-12.831c-.642-1.878-.507-3.909.38-5.719z"/>
        </g>
    </g>
</svg>